<?xml version="1.0"?>
<svg xmlns="http://www.w3.org/2000/svg" xmlns:xlink="http://www.w3.org/1999/xlink" xmlns:svgjs="http://svgjs.com/svgjs" version="1.1" width="512" height="512" x="0" y="0" viewBox="0 0 512 512" style="enable-background:new 0 0 512 512" xml:space="preserve" class=""><g transform="matrix(0.5,0,0,0.5,128,128.00000667572021)">
<polygon xmlns="http://www.w3.org/2000/svg" style="" points="332.663,473.644 332.663,413.596 235.984,393.58 256,473.644 " fill="#9abadb" data-original="#9abadb" class=""/>
<g xmlns="http://www.w3.org/2000/svg">
	<polygon style="" points="179.337,473.644 256,473.644 256,393.58 179.337,413.596  " fill="#d1e8ff" data-original="#d1e8ff"/>
	<polygon style="" points="512,323.524 235.984,303.508 256,413.596 512,413.596  " fill="#d1e8ff" data-original="#d1e8ff"/>
</g>
<polygon xmlns="http://www.w3.org/2000/svg" style="" points="0,323.524 0,413.596 256,413.596 256,303.508 " fill="#f5f5ff" data-original="#f5f5ff"/>
<polygon xmlns="http://www.w3.org/2000/svg" style="" points="377.699,458.644 256,458.644 245.992,473.644 256,488.644 377.699,488.644 " fill="#d1e8ff" data-original="#d1e8ff"/>
<rect xmlns="http://www.w3.org/2000/svg" x="134.3" y="458.64" style="" width="121.7" height="30" fill="#f5f5ff" data-original="#f5f5ff"/>
<polygon xmlns="http://www.w3.org/2000/svg" style="" points="512,23.356 256,23.356 235.984,173.44 256,323.524 512,323.524 " fill="#294b6e" data-original="#294b6e"/>
<rect xmlns="http://www.w3.org/2000/svg" y="23.356" style="" width="256" height="300.17" fill="#6283a3" data-original="#6283a3" class=""/>
<polygon xmlns="http://www.w3.org/2000/svg" style="" points="178.828,252.914 99.354,173.44 178.828,93.966 200.041,115.179 141.78,173.44   200.041,231.701 " fill="#f5f5ff" data-original="#f5f5ff"/>
<g xmlns="http://www.w3.org/2000/svg">
	<polygon style="" points="333.172,252.914 311.959,231.701 370.22,173.44 311.959,115.179 333.172,93.966    412.646,173.44  " fill="#d1e8ff" data-original="#d1e8ff"/>
	
		<rect x="241" y="78.635" transform="matrix(-0.9808 -0.1951 0.1951 -0.9808 473.2431 393.505)" style="" width="30" height="189.623" fill="#d1e8ff" data-original="#d1e8ff"/>
</g>
<g xmlns="http://www.w3.org/2000/svg">
</g>
<g xmlns="http://www.w3.org/2000/svg">
</g>
<g xmlns="http://www.w3.org/2000/svg">
</g>
<g xmlns="http://www.w3.org/2000/svg">
</g>
<g xmlns="http://www.w3.org/2000/svg">
</g>
<g xmlns="http://www.w3.org/2000/svg">
</g>
<g xmlns="http://www.w3.org/2000/svg">
</g>
<g xmlns="http://www.w3.org/2000/svg">
</g>
<g xmlns="http://www.w3.org/2000/svg">
</g>
<g xmlns="http://www.w3.org/2000/svg">
</g>
<g xmlns="http://www.w3.org/2000/svg">
</g>
<g xmlns="http://www.w3.org/2000/svg">
</g>
<g xmlns="http://www.w3.org/2000/svg">
</g>
<g xmlns="http://www.w3.org/2000/svg">
</g>
<g xmlns="http://www.w3.org/2000/svg">
</g>
</g></svg>
